<?xml version="1.0" encoding="UTF-8"?> <svg xmlns="http://www.w3.org/2000/svg" width="364.82" height="381.24" viewBox="0 0 364.82 381.24"> <title>auditoria-seguridad-hacking-etico-1</title> <path d="M372.63,192.29a182,182,0,0,1-68,142l-1.38,1.09a182.14,182.14,0,0,1-227.63-1.19c-.45-.35-.9-.71-1.34-1.08A182,182,0,0,1,7.81,192.29C7.81,91.55,89.48,9.89,190.22,9.89S372.63,91.55,372.63,192.29Z" transform="translate(-7.81 -9.89)" fill="#f7a630"></path> <path d="M190,65c-.1,0-.2,0-.3,0v0Z" transform="translate(-7.81 -9.89)" fill="#4a4a4a"></path> <path d="M273.21,179.88c-2.8,24.94-33.24,57.79-33.24,57.79H189.73V78.32l.38,0,.24,0h0v.06c3.81.28,22.47,2.37,38.13,14.77a120.51,120.51,0,0,1,16.68,16.3c10.95,21,17.82,44,25.12,55.35C273.1,169.12,273.84,174.3,273.21,179.88Z" transform="translate(-7.81 -9.89)" fill="#4a4a4a"></path> <path d="M190.11,78.35l.24,0V237.67H140.12s-32.2-32.85-35.65-57.8c-.77-5.57-.12-10.75,2.66-15.07,6.67-10.4,13.5-30.44,23.44-49.86A128,128,0,0,1,151.51,93.2c15.66-12.41,34.36-14.52,38.18-14.82v-.06h0Z" transform="translate(-7.81 -9.89)" fill="#4a4a4a"></path> <path d="M190.35,65v0a2.91,2.91,0,0,0-.32,0Z" transform="translate(-7.81 -9.89)" fill="#4a4a4a"></path> <rect x="165.68" y="198.38" width="32.34" height="54.81" fill="#fd916f"></rect> <path d="M205.9,250.15c0,3.37-7.14,6.1-16,6.1s-16.45-4-16.45-7.39,7.63-4.81,16.45-4.81S205.9,246.78,205.9,250.15Z" transform="translate(-7.81 -9.89)" fill="#fd916f"></path> <path d="M327.51,336c-4.69,3.72-48.71,33.5-53.81,36.67-8.66,5.41-18.1-54.6-27.78-51a158.57,158.57,0,0,1-112.38-.36c-9.37-3.61-18,56.25-26.42,51-5.53-3.43-49.7-28.78-54.74-32.86C59.29,316,105.13,239.25,109,237.54c12.66-5.54,64.52-20.28,64.52-20.28s32.14,2.1,32.33,2.24c0,0,53.71,10.08,65.17,18C275.93,241,322.2,314.59,327.51,336Z" transform="translate(-7.81 -9.89)" fill="#4a4a4a"></path> <path d="M159.73,169.6C159.73,177,154,183,146.9,183s-14.85-8.84-14.85-16.26,2.55-10.59,9.64-10.59S159.73,162.18,159.73,169.6Z" transform="translate(-7.81 -9.89)" fill="#f7b5a4"></path> <path d="M222.52,169.6c0,7.41,5.74,13.42,12.83,13.42s14.85-8.84,14.85-16.26-2.55-10.59-9.64-10.59S222.52,162.18,222.52,169.6Z" transform="translate(-7.81 -9.89)" fill="#f7b5a4"></path> <path d="M242.26,148.23c0,37.49-22.73,75.83-50.78,75.83s-50.78-38.34-50.78-75.83,22.73-59.95,50.78-59.95S242.26,110.73,242.26,148.23Z" transform="translate(-7.81 -9.89)" fill="#f7b5a4"></path> <path d="M239.71,155.42H191.48v-.06H143.25s-1.86,14.49,4,27.65c0,0,11.38,4.08,38.21-7.37a15.67,15.67,0,0,1,6-1.43v0a15.88,15.88,0,0,1,6,1.43c26.84,11.45,38.21,7.38,38.21,7.38C241.57,169.91,239.71,155.42,239.71,155.42Z" transform="translate(-7.81 -9.89)" fill="#4a4a4a"></path> <path d="M190.39,71.71v-.06h0l-.24,0-.38,0h0v.06c-55.26,6.61-88.61,92-85.52,108.25l.3-.09c3-.92,27.95-8.07,85.26-9.66h.62c57.76,1.6,80.47,8.85,82.86,9.67l.22.08C277.18,158.94,242.26,69.74,190.39,71.71Z" transform="translate(-7.81 -9.89)" fill="#636363"></path> <rect x="93.57" y="360.73" width="174.13" height="17.53" fill="#4a4a4a"></rect> <rect x="89.18" y="264.21" width="185.42" height="107.81" rx="5.94" ry="5.94" fill="#636363"></rect> <path d="M282.41,388.15a3,3,0,0,1-3,3H100a3,3,0,0,1-3-3h0a3,3,0,0,1,3-3H279.43a3,3,0,0,1,3,3Z" transform="translate(-7.81 -9.89)" fill="#636363"></path> <path d="M189.4,340.52a1.08,1.08,0,1,1-1.08-1.08A1.08,1.08,0,0,1,189.4,340.52Z" transform="translate(-7.81 -9.89)" fill="#636363"></path> <path d="M182.52,329.44,180,332l8.07,8.07L206,322.1l-2.51-2.51L188.08,335Zm21.68,3.41a14.34,14.34,0,1,1-14.33-14.34,13.9,13.9,0,0,1,3.94.54l2.87-2.87a22,22,0,0,0-6.81-1.25,17.92,17.92,0,1,0,17.92,17.92Z" transform="translate(-7.81 -9.89)" fill="#fff"></path> </svg> 