<?xml version="1.0" encoding="UTF-8"?> <svg xmlns="http://www.w3.org/2000/svg" xmlns:xlink="http://www.w3.org/1999/xlink" width="404.21" height="328.12" viewBox="0 0 404.21 328.12"> <defs> <linearGradient id="a" x1="234.64" y1="300.5" x2="234.64" y2="369.41" gradientUnits="userSpaceOnUse"> <stop offset="0" stop-color="#e4e6e8"></stop> <stop offset="0.06" stop-color="#e1e2e4"></stop> <stop offset="0.11" stop-color="#d6d8d9"></stop> <stop offset="0.16" stop-color="#c4c5c6"></stop> <stop offset="0.21" stop-color="#abacac"></stop> <stop offset="0.23" stop-color="#9f9f9f"></stop> <stop offset="0.66" stop-color="#ebebeb"></stop> <stop offset="0.76" stop-color="#f2f2f2"></stop> <stop offset="1" stop-color="#fff"></stop> </linearGradient> <linearGradient id="b" x1="138.48" y1="325.93" x2="243.55" y2="326.59" gradientUnits="userSpaceOnUse"> <stop offset="0" stop-color="#e4e6e8"></stop> <stop offset="0.06" stop-color="#e1e2e4"></stop> <stop offset="0.11" stop-color="#d6d8d9"></stop> <stop offset="0.16" stop-color="#c4c5c6"></stop> <stop offset="0.21" stop-color="#abacac"></stop> <stop offset="0.23" stop-color="#9f9f9f"></stop> <stop offset="0.34" stop-color="#b3b3b3"></stop> <stop offset="0.72" stop-color="#f6f6f6"></stop> <stop offset="0.9" stop-color="#ebebeb"></stop> <stop offset="0.93" stop-color="#f2f2f2"></stop> <stop offset="1" stop-color="#fff"></stop> </linearGradient> <linearGradient id="c" x1="3.28" y1="318.69" x2="350.72" y2="74.57" gradientUnits="userSpaceOnUse"> <stop offset="0" stop-color="#484848"></stop> <stop offset="0.06" stop-color="#444"></stop> <stop offset="0.12" stop-color="#393939"></stop> <stop offset="0.17" stop-color="#262626"></stop> <stop offset="0.23" stop-color="#0c0c0c"></stop> <stop offset="0.23" stop-color="#0b0b0b"></stop> <stop offset="0.32" stop-color="#141414"></stop> <stop offset="1" stop-color="#575757"></stop> </linearGradient> <linearGradient id="d" x1="-14.77" y1="418.16" x2="479.19" y2="140.44" gradientUnits="userSpaceOnUse"> <stop offset="0.03" stop-color="#b8b8b8"></stop> <stop offset="0.89" stop-color="#fff"></stop> </linearGradient> <linearGradient id="e" x1="29.21" y1="228.97" x2="516.81" y2="-92.21" gradientUnits="userSpaceOnUse"> <stop offset="0.03" stop-color="#f73081"></stop> <stop offset="1" stop-color="#f7a630"></stop> </linearGradient> <linearGradient id="f" x1="523.33" y1="148.27" x2="67.53" y2="159.93" gradientUnits="userSpaceOnUse"> <stop offset="0"></stop> <stop offset="0.29" stop-color="#020202"></stop> <stop offset="0.43" stop-color="#0a0a0a"></stop> <stop offset="0.53" stop-color="#171717"></stop> <stop offset="0.62" stop-color="#292929"></stop> <stop offset="0.7" stop-color="#414141"></stop> <stop offset="0.77" stop-color="#5e5e5e"></stop> <stop offset="0.84" stop-color="#818181"></stop> <stop offset="0.9" stop-color="#aaa"></stop> <stop offset="0.96" stop-color="#d7d7d7"></stop> <stop offset="1" stop-color="#fff"></stop> </linearGradient> </defs> <title>seguridad-ransomware-icon1</title> <g style="isolation:isolate"> <path d="M294.16,340c-7.17-7.07-11.44-18.65-11.44-31V296.62H186.57V309c0,12.36-4.27,23.94-11.44,31l-11.26,11.12H305.42Z" transform="translate(-32.54 -26.58)" fill="url(#a)"></path> <rect x="131.33" y="324.54" width="141.55" height="3.58" fill="url(#b)"></rect> <path d="M436.75,281.86V34.52a8,8,0,0,0-7.95-7.94H40.48a7.94,7.94,0,0,0-7.94,7.94V281.86Z" transform="translate(-32.54 -26.58)" fill="url(#c)"></path> <path d="M32.54,257.82V293.4a7.94,7.94,0,0,0,7.94,8H428.8a8,8,0,0,0,7.95-8V257.82Z" transform="translate(-32.54 -26.58)" fill="url(#d)"></path> <rect x="12.3" y="12.53" width="379.28" height="205.33" fill="url(#e)"></rect> <path d="M428.8,26.58H145l151.7,255.28h140.1V34.52A8,8,0,0,0,428.8,26.58Z" transform="translate(-32.54 -26.58)" opacity="0.25" fill="url(#f)" style="mix-blend-mode:screen"></path> <path d="M80.74,61.75H73v21H71.1v-21H63.32V60.16H80.74Z" transform="translate(-32.54 -26.58)" fill="#fff"></path> <path d="M93.44,80a5.82,5.82,0,0,1-2.17,2.28,6.32,6.32,0,0,1-3.23.8,5.12,5.12,0,0,1-4.16-1.8c-1-1.2-1.51-3.07-1.51-5.59V66h1.86v9.79a7.27,7.27,0,0,0,1,4.42,3.56,3.56,0,0,0,3,1.33,5.43,5.43,0,0,0,3.37-1A5,5,0,0,0,93.38,78V66h1.86v16.8H93.6Z" transform="translate(-32.54 -26.58)" fill="#fff"></path> <path d="M110.2,78.49a2.74,2.74,0,0,0-1-2.06A7.9,7.9,0,0,0,105.72,75a11.7,11.7,0,0,1-4.44-1.72,3.56,3.56,0,0,1-1.44-3A4.05,4.05,0,0,1,101.46,67a6.56,6.56,0,0,1,4.3-1.33,6.74,6.74,0,0,1,4.5,1.41,4.17,4.17,0,0,1,1.58,3.51l0,.1h-1.72a3.1,3.1,0,0,0-1.17-2.41,4.67,4.67,0,0,0-3.16-1,4.62,4.62,0,0,0-3.06.88,2.63,2.63,0,0,0-1,2,2.42,2.42,0,0,0,.87,1.92,8.69,8.69,0,0,0,3.51,1.33,11.38,11.38,0,0,1,4.48,1.83A3.75,3.75,0,0,1,112,78.39a4.07,4.07,0,0,1-1.7,3.41,7.23,7.23,0,0,1-4.49,1.3A7.31,7.31,0,0,1,101,81.64a4.14,4.14,0,0,1-1.65-3.48l0-.09h1.71a3.05,3.05,0,0,0,1.48,2.62,6.19,6.19,0,0,0,3.24.82,5.13,5.13,0,0,0,3.18-.88A2.61,2.61,0,0,0,110.2,78.49Z" transform="translate(-32.54 -26.58)" fill="#fff"></path> <path d="M133.21,82.77a9.09,9.09,0,0,1-.43-1.21,9.35,9.35,0,0,1-.26-1.3,6.16,6.16,0,0,1-1.84,2,4.56,4.56,0,0,1-2.72.81,5.66,5.66,0,0,1-4.07-1.36,4.88,4.88,0,0,1-1.43-3.7,4.44,4.44,0,0,1,1.9-3.83,9.49,9.49,0,0,1,5.56-1.36h2.53V71.51a2.62,2.62,0,0,0-.64-1.87,2.45,2.45,0,0,0-1.88-.67,2.51,2.51,0,0,0-1.7.53,1.89,1.89,0,0,0-.6,1.49l-4.38,0v-.09a4.25,4.25,0,0,1,1.85-3.67,8,8,0,0,1,5.14-1.55,7.51,7.51,0,0,1,4.89,1.53A5.3,5.3,0,0,1,137,71.55v6.94a13.13,13.13,0,0,0,.18,2.22,10.33,10.33,0,0,0,.56,2.06Zm-4.15-3a3.84,3.84,0,0,0,2.13-.59,3.06,3.06,0,0,0,1.26-1.36V75.41h-2.53a3,3,0,0,0-2.19.72,2.35,2.35,0,0,0-.75,1.75,1.75,1.75,0,0,0,.56,1.35A2.17,2.17,0,0,0,129.06,79.74Z" transform="translate(-32.54 -26.58)" fill="#fff"></path> <path d="M149.26,69.87l-1.66-.05a3,3,0,0,0-1.66.42,2.62,2.62,0,0,0-1,1.18V82.77h-4.52V66h4.21l.2,2.49a5.23,5.23,0,0,1,1.53-2.06,3.41,3.41,0,0,1,2.16-.74,4,4,0,0,1,.63,0c.19,0,.39.08.58.14Z" transform="translate(-32.54 -26.58)" fill="#fff"></path> <path d="M158.61,79.6a2.67,2.67,0,0,0,1.94-.7,2.46,2.46,0,0,0,.73-1.87h4.12l0,.09a5.25,5.25,0,0,1-1.91,4.26,8.08,8.08,0,0,1-10.71-.66,9,9,0,0,1-2-6.1v-.47a9.12,9.12,0,0,1,2-6.1,7.18,7.18,0,0,1,5.79-2.39,7,7,0,0,1,5,1.77,5.88,5.88,0,0,1,1.84,4.66l0,.09h-4.13a3.29,3.29,0,0,0-.71-2.16,2.42,2.42,0,0,0-2-.87,2.63,2.63,0,0,0-2.54,1.4,7.58,7.58,0,0,0-.74,3.6v.46a7.53,7.53,0,0,0,.74,3.62A2.64,2.64,0,0,0,158.61,79.6Z" transform="translate(-32.54 -26.58)" fill="#fff"></path> <path d="M172.45,68.1a5.65,5.65,0,0,1,1.94-1.8,5.6,5.6,0,0,1,6.67,1.11q1.49,1.74,1.49,5.39v10H178v-10a4.35,4.35,0,0,0-.69-2.78,2.57,2.57,0,0,0-2.06-.82,3.84,3.84,0,0,0-1.64.34,3.12,3.12,0,0,0-1.18.94V82.77h-4.54V58.55h4.54Z" transform="translate(-32.54 -26.58)" fill="#fff"></path> <path d="M190.74,62H186.2v-3.4h4.54Zm0,20.82H186.2V66h4.54Z" transform="translate(-32.54 -26.58)" fill="#fff"></path> <path d="M200.53,76.51l.3,1.56h.09l.31-1.56L204,66h4.73L203,82.77h-4.33L193,66h4.74Z" transform="translate(-32.54 -26.58)" fill="#fff"></path> <path d="M209.74,74.22a9,9,0,0,1,2.1-6.16,7.3,7.3,0,0,1,5.8-2.4,7.38,7.38,0,0,1,5.84,2.39,9,9,0,0,1,2.11,6.17v.32a9,9,0,0,1-2.1,6.17,8.28,8.28,0,0,1-11.64,0,8.92,8.92,0,0,1-2.11-6.17Zm4.52.31a7.31,7.31,0,0,0,.81,3.69,3.11,3.11,0,0,0,5.18,0,7.3,7.3,0,0,0,.81-3.68v-.32a7.2,7.2,0,0,0-.82-3.65,2.79,2.79,0,0,0-2.6-1.41,2.74,2.74,0,0,0-2.56,1.42,7.19,7.19,0,0,0-.82,3.64Z" transform="translate(-32.54 -26.58)" fill="#fff"></path> <path d="M237.47,78.14a1.58,1.58,0,0,0-.72-1.28,7.16,7.16,0,0,0-2.68-1,10.73,10.73,0,0,1-4.49-1.79,3.89,3.89,0,0,1-1.52-3.24,4.63,4.63,0,0,1,1.83-3.69,7.43,7.43,0,0,1,4.88-1.51,8,8,0,0,1,5.12,1.51,4.43,4.43,0,0,1,1.82,3.8l0,.09H237.3a2.19,2.19,0,0,0-.64-1.64,3.08,3.08,0,0,0-3.62-.1,1.67,1.67,0,0,0-.63,1.34,1.52,1.52,0,0,0,.66,1.27,7.22,7.22,0,0,0,2.68.89,10.8,10.8,0,0,1,4.61,1.82A4,4,0,0,1,241.87,78a4.42,4.42,0,0,1-1.94,3.7,8.43,8.43,0,0,1-5.13,1.44,7.81,7.81,0,0,1-5.3-1.7,4.78,4.78,0,0,1-1.86-3.88l0-.09h4.15a2.37,2.37,0,0,0,.89,2,3.66,3.66,0,0,0,2.19.6,3.15,3.15,0,0,0,1.91-.49A1.63,1.63,0,0,0,237.47,78.14Z" transform="translate(-32.54 -26.58)" fill="#fff"></path> <path d="M255.28,68.84a6,6,0,0,1,5.5-3.18,5.1,5.1,0,0,1,4.08,1.65,7.71,7.71,0,0,1,1.42,5.1V82.77h-1.87V72.36a5.81,5.81,0,0,0-1.08-3.93,3.82,3.82,0,0,0-3-1.19,5,5,0,0,0-3.19,1,5.93,5.93,0,0,0-1.89,2.67V82.77h-1.86V58.55h1.86Z" transform="translate(-32.54 -26.58)" fill="#fff"></path> <path d="M281.76,82.77a14.86,14.86,0,0,1-.27-1.47,10.64,10.64,0,0,1-.07-1.26,7.48,7.48,0,0,1-2.49,2.19,7,7,0,0,1-3.49.87,5.26,5.26,0,0,1-3.81-1.31,4.59,4.59,0,0,1-1.36-3.49,4.34,4.34,0,0,1,2-3.73,9.36,9.36,0,0,1,5.42-1.39h3.72V71.09a3.57,3.57,0,0,0-1.16-2.82,4.74,4.74,0,0,0-3.24-1,5.16,5.16,0,0,0-3.22,1,2.9,2.9,0,0,0-1.28,2.39h-1.71l0-.1a4,4,0,0,1,1.71-3.36,7,7,0,0,1,4.61-1.48,6.76,6.76,0,0,1,4.47,1.41,5,5,0,0,1,1.69,4.06v8.26a16.06,16.06,0,0,0,.1,1.72,10.63,10.63,0,0,0,.34,1.66Zm-6.11-1.32a6.6,6.6,0,0,0,3.54-.94,5.52,5.52,0,0,0,2.23-2.4V74.6h-3.75a6.83,6.83,0,0,0-4,1.08,3.21,3.21,0,0,0-1.52,2.68,2.91,2.91,0,0,0,.94,2.23A3.74,3.74,0,0,0,275.65,81.45Z" transform="translate(-32.54 -26.58)" fill="#fff"></path> <path d="M289.86,66l.17,2.94a6,6,0,0,1,2.18-2.4,6,6,0,0,1,3.26-.85,5.18,5.18,0,0,1,4.16,1.67q1.42,1.67,1.43,5.21V82.77h-1.87V72.53c0-1.93-.36-3.29-1.08-4.09a3.89,3.89,0,0,0-3.06-1.2,4.78,4.78,0,0,0-3.19,1A5.68,5.68,0,0,0,290.08,71V82.77h-1.86V66Z" transform="translate(-32.54 -26.58)" fill="#fff"></path> <path d="M75.14,116.65a2.74,2.74,0,0,0-1-2.06,7.9,7.9,0,0,0-3.51-1.44,11.7,11.7,0,0,1-4.44-1.72,3.56,3.56,0,0,1-1.44-3,4.05,4.05,0,0,1,1.62-3.25,6.54,6.54,0,0,1,4.3-1.33,6.74,6.74,0,0,1,4.5,1.41,4.17,4.17,0,0,1,1.58,3.51l0,.1H75a3.08,3.08,0,0,0-1.18-2.41,5.53,5.53,0,0,0-6.21-.15,2.63,2.63,0,0,0-1,2,2.42,2.42,0,0,0,.87,1.92A8.69,8.69,0,0,0,71,111.57a11.53,11.53,0,0,1,4.48,1.83A3.75,3.75,0,0,1,77,116.55a4.07,4.07,0,0,1-1.7,3.41,7.23,7.23,0,0,1-4.49,1.3A7.31,7.31,0,0,1,66,119.8a4.14,4.14,0,0,1-1.65-3.48l0-.09h1.71a3,3,0,0,0,1.48,2.62,6.19,6.19,0,0,0,3.24.82,5.13,5.13,0,0,0,3.18-.88A2.61,2.61,0,0,0,75.14,116.65Z" transform="translate(-32.54 -26.58)" fill="#fff"></path> <path d="M83.35,99.32H81.5V96.71h1.85Zm0,21.61H81.5v-16.8h1.85Z" transform="translate(-32.54 -26.58)" fill="#fff"></path> <path d="M87.76,112.67a11,11,0,0,1,1.7-6.44,5.48,5.48,0,0,1,4.74-2.41,6,6,0,0,1,3,.75,6.08,6.08,0,0,1,2.14,2.11v-10h1.85v24.22H99.59l-.15-2.44a5.73,5.73,0,0,1-2.16,2.05,6.41,6.41,0,0,1-3.11.72A5.56,5.56,0,0,1,89.46,119a9.72,9.72,0,0,1-1.7-6Zm1.86.33a8.63,8.63,0,0,0,1.22,4.87,4.14,4.14,0,0,0,3.67,1.8,5.28,5.28,0,0,0,3-.81,5.44,5.44,0,0,0,1.87-2.24v-7.93a6.06,6.06,0,0,0-1.8-2.37,4.8,4.8,0,0,0-3-.92,4,4,0,0,0-3.68,2,9.9,9.9,0,0,0-1.24,5.25Z" transform="translate(-32.54 -26.58)" fill="#fff"></path> <path d="M105.15,112.28a9,9,0,0,1,2-6.08,7.32,7.32,0,0,1,10.8,0,9,9,0,0,1,2,6.08v.52a9,9,0,0,1-2,6.09,6.72,6.72,0,0,1-5.38,2.37,6.8,6.8,0,0,1-5.42-2.37,9,9,0,0,1-2-6.09Zm1.86.51a8,8,0,0,0,1.48,4.9,5.22,5.22,0,0,0,8.19,0,8,8,0,0,0,1.48-4.9v-.51a7.86,7.86,0,0,0-1.49-4.87,4.82,4.82,0,0,0-4.1-2,4.77,4.77,0,0,0-4.08,2,7.92,7.92,0,0,0-1.48,4.87Z" transform="translate(-32.54 -26.58)" fill="#fff"></path> <path d="M138.52,121.26a7.59,7.59,0,0,1-5.81-2.33,8.33,8.33,0,0,1-2.17-5.92v-.62a9.18,9.18,0,0,1,2.05-6.16,7.67,7.67,0,0,1,10.8-.36,7.85,7.85,0,0,1,1.88,5.54v2.47h-10l0,.1a4.33,4.33,0,0,0,1.11,2.72,3.47,3.47,0,0,0,2.68,1.06,8.81,8.81,0,0,0,2.5-.3,11.49,11.49,0,0,0,2.17-.95l1.23,2.8a8.37,8.37,0,0,1-2.69,1.39A11.57,11.57,0,0,1,138.52,121.26Zm-.41-14a2.36,2.36,0,0,0-2,1,4.92,4.92,0,0,0-.9,2.53l0,.08h5.56v-.41a3.62,3.62,0,0,0-.67-2.3A2.43,2.43,0,0,0,138.11,107.31Z" transform="translate(-32.54 -26.58)" fill="#fff"></path> <path d="M152.06,104.13l.2,2.41a6.2,6.2,0,0,1,2.07-2,5.38,5.38,0,0,1,2.74-.71,5,5,0,0,1,4,1.6q1.42,1.6,1.43,5v10.49h-4.55v-10.5a3.4,3.4,0,0,0-.69-2.41,2.74,2.74,0,0,0-2.06-.71,3.58,3.58,0,0,0-1.62.37,3.36,3.36,0,0,0-1.19,1v12.22h-4.54v-16.8Z" transform="translate(-32.54 -26.58)" fill="#fff"></path> <path d="M172.91,117.76a2.66,2.66,0,0,0,1.94-.7,2.46,2.46,0,0,0,.73-1.87h4.12l0,.09a5.19,5.19,0,0,1-1.91,4.26,8.08,8.08,0,0,1-10.71-.66,9,9,0,0,1-2-6.1v-.47a9.12,9.12,0,0,1,2-6.1,7.18,7.18,0,0,1,5.79-2.39,7,7,0,0,1,5,1.77,5.84,5.84,0,0,1,1.84,4.66l0,.09h-4.13a3.29,3.29,0,0,0-.71-2.16,2.42,2.42,0,0,0-2-.87,2.64,2.64,0,0,0-2.54,1.4,7.7,7.7,0,0,0-.74,3.6v.46a7.65,7.65,0,0,0,.74,3.62A2.64,2.64,0,0,0,172.91,117.76Z" transform="translate(-32.54 -26.58)" fill="#fff"></path> <path d="M191.16,108l-1.66,0a3,3,0,0,0-1.67.42,2.68,2.68,0,0,0-1,1.18v11.35h-4.52v-16.8h4.21l.2,2.49a5.23,5.23,0,0,1,1.53-2.06,3.44,3.44,0,0,1,2.17-.74,3.21,3.21,0,0,1,.63.06c.19,0,.38.08.58.13Z" transform="translate(-32.54 -26.58)" fill="#fff"></path> <path d="M198.22,100.11h-4.53v-3.4h4.53Zm0,20.82h-4.53v-16.8h4.53Z" transform="translate(-32.54 -26.58)" fill="#fff"></path> <path d="M217.1,113a9.64,9.64,0,0,1-1.72,6,5.71,5.71,0,0,1-4.82,2.27,5.44,5.44,0,0,1-2.34-.49,4.84,4.84,0,0,1-1.75-1.44v8.06H202V104.13H206l.26,2a5.38,5.38,0,0,1,1.8-1.7,4.82,4.82,0,0,1,2.44-.6,5.59,5.59,0,0,1,4.85,2.44,10.85,10.85,0,0,1,1.72,6.41Zm-4.53-.35a8.27,8.27,0,0,0-.79-3.86,2.6,2.6,0,0,0-2.43-1.48,3.4,3.4,0,0,0-1.74.42,3,3,0,0,0-1.14,1.2v7.37a2.78,2.78,0,0,0,1.14,1.09,3.8,3.8,0,0,0,1.77.37,2.61,2.61,0,0,0,2.42-1.29,6.83,6.83,0,0,0,.77-3.5Z" transform="translate(-32.54 -26.58)" fill="#fff"></path> <path d="M225.28,100v4.11h2.83v3.18h-2.83v8.56a2,2,0,0,0,.41,1.4,1.43,1.43,0,0,0,1.08.42,5.23,5.23,0,0,0,.62,0c.17,0,.37-.07.6-.13l.38,3.27a8.73,8.73,0,0,1-1.33.35,7.88,7.88,0,0,1-1.41.12A4.81,4.81,0,0,1,222,120a5.62,5.62,0,0,1-1.27-4.08v-8.58H218.3v-3.18h2.45V100Z" transform="translate(-32.54 -26.58)" fill="#fff"></path> <path d="M240.86,120.93a8.62,8.62,0,0,1-.43-1.21,8.07,8.07,0,0,1-.25-1.3,6.39,6.39,0,0,1-1.84,2,4.61,4.61,0,0,1-2.73.81,5.66,5.66,0,0,1-4.07-1.36,4.88,4.88,0,0,1-1.43-3.7,4.42,4.42,0,0,1,1.91-3.83,9.43,9.43,0,0,1,5.55-1.36h2.53v-1.34a2.57,2.57,0,0,0-.64-1.87,2.45,2.45,0,0,0-1.88-.67,2.51,2.51,0,0,0-1.7.53,1.91,1.91,0,0,0-.6,1.49l-4.37,0,0-.09a4.25,4.25,0,0,1,1.85-3.67,8,8,0,0,1,5.14-1.55,7.49,7.49,0,0,1,4.89,1.53,5.3,5.3,0,0,1,1.88,4.36v6.94a13.13,13.13,0,0,0,.18,2.22,10.33,10.33,0,0,0,.56,2.06Zm-4.15-3a3.84,3.84,0,0,0,2.13-.59A3.06,3.06,0,0,0,240.1,116v-2.38h-2.53a3,3,0,0,0-2.19.72,2.35,2.35,0,0,0-.75,1.75,1.75,1.75,0,0,0,.56,1.35A2.17,2.17,0,0,0,236.71,117.9Z" transform="translate(-32.54 -26.58)" fill="#fff"></path> <path d="M247.38,112.67a10.85,10.85,0,0,1,1.72-6.41,5.55,5.55,0,0,1,4.83-2.44,4.73,4.73,0,0,1,2.27.54,5.54,5.54,0,0,1,1.77,1.56V96.71h4.55v24.22h-3.9l-.37-2.05a5.5,5.5,0,0,1-1.87,1.77,4.93,4.93,0,0,1-2.48.61,5.67,5.67,0,0,1-4.8-2.27,9.64,9.64,0,0,1-1.72-6Zm4.52.33a7,7,0,0,0,.74,3.49,2.6,2.6,0,0,0,2.43,1.27,3.53,3.53,0,0,0,1.7-.39,3.2,3.2,0,0,0,1.2-1.17V109a3.54,3.54,0,0,0-1.19-1.24,3.1,3.1,0,0,0-1.68-.45,2.56,2.56,0,0,0-2.43,1.49,8.45,8.45,0,0,0-.77,3.87Z" transform="translate(-32.54 -26.58)" fill="#fff"></path> <path d="M265.33,112.38a9,9,0,0,1,2.1-6.16,7.29,7.29,0,0,1,5.8-2.4,7.4,7.4,0,0,1,5.84,2.39,9,9,0,0,1,2.11,6.17v.32a9,9,0,0,1-2.1,6.17,8.29,8.29,0,0,1-11.65,0,9,9,0,0,1-2.1-6.17Zm4.52.31a7.31,7.31,0,0,0,.81,3.69,3.1,3.1,0,0,0,5.17,0,7.19,7.19,0,0,0,.82-3.68v-.32a7.24,7.24,0,0,0-.82-3.64,3.06,3.06,0,0,0-5.17,0,7.29,7.29,0,0,0-.81,3.64Z" transform="translate(-32.54 -26.58)" fill="#fff"></path> <path d="M293.06,116.3a1.58,1.58,0,0,0-.72-1.28,7.24,7.24,0,0,0-2.68-1,10.67,10.67,0,0,1-4.49-1.79,3.89,3.89,0,0,1-1.52-3.24,4.63,4.63,0,0,1,1.83-3.69,7.43,7.43,0,0,1,4.88-1.51,8,8,0,0,1,5.12,1.51,4.46,4.46,0,0,1,1.82,3.8l0,.09h-4.38a2.23,2.23,0,0,0-.64-1.64,3.08,3.08,0,0,0-3.62-.1,1.67,1.67,0,0,0-.63,1.34,1.52,1.52,0,0,0,.66,1.27,7.22,7.22,0,0,0,2.68.89A10.86,10.86,0,0,1,296,112.8a4,4,0,0,1,1.51,3.32,4.41,4.41,0,0,1-1.95,3.7,8.38,8.38,0,0,1-5.12,1.44,7.79,7.79,0,0,1-5.3-1.7,4.78,4.78,0,0,1-1.86-3.88l0-.09h4.15a2.39,2.39,0,0,0,.88,2,3.68,3.68,0,0,0,2.19.6,3.16,3.16,0,0,0,1.92-.49A1.63,1.63,0,0,0,293.06,116.3Z" transform="translate(-32.54 -26.58)" fill="#fff"></path> <path d="M305.4,120.93h-4.53v-4h4.53Z" transform="translate(-32.54 -26.58)" fill="#fff"></path> <path d="M73.26,214.44H69.42v11.47H66.7V214.44H62.88v-2.1H73.26Z" transform="translate(-32.54 -26.58)" fill="#fff"></path> <path d="M77.42,213.42H74.7v-2h2.72Zm0,12.49H74.7V215.83h2.72Z" transform="translate(-32.54 -26.58)" fill="#fff"></path> <path d="M84.11,226.1a4.54,4.54,0,0,1-3.48-1.39,5,5,0,0,1-1.3-3.55v-.38a5.5,5.5,0,0,1,1.23-3.69,4.6,4.6,0,0,1,6.48-.22,4.75,4.75,0,0,1,1.13,3.33v1.48h-6l0,0a2.6,2.6,0,0,0,.67,1.64,2.09,2.09,0,0,0,1.6.64,5.21,5.21,0,0,0,1.5-.18,6.86,6.86,0,0,0,1.31-.58l.73,1.68a4.87,4.87,0,0,1-1.61.84A7,7,0,0,1,84.11,226.1Zm-.24-8.36a1.4,1.4,0,0,0-1.19.58,3,3,0,0,0-.54,1.51l0,0H85.5v-.24a2.21,2.21,0,0,0-.4-1.39A1.48,1.48,0,0,0,83.87,217.74Z" transform="translate(-32.54 -26.58)" fill="#fff"></path> <path d="M92.28,215.83l.11,1.33a3.33,3.33,0,0,1,2.9-1.52,3,3,0,0,1,1.66.43,2.7,2.7,0,0,1,1,1.3,3.44,3.44,0,0,1,1.21-1.27,3.22,3.22,0,0,1,1.75-.46,2.89,2.89,0,0,1,2.35,1,4.78,4.78,0,0,1,.86,3.14v6.1h-2.72v-6.13a2.52,2.52,0,0,0-.37-1.59,1.36,1.36,0,0,0-1.11-.45,1.9,1.9,0,0,0-1,.25,2,2,0,0,0-.68.72c0,.12,0,.22,0,.3a2.26,2.26,0,0,1,0,.26v6.64H95.6v-6.13a2.57,2.57,0,0,0-.37-1.58,1.35,1.35,0,0,0-1.12-.46,2.09,2.09,0,0,0-1,.21,1.88,1.88,0,0,0-.69.59v7.37H89.75V215.83Z" transform="translate(-32.54 -26.58)" fill="#fff"></path> <path d="M115.35,221.15a5.75,5.75,0,0,1-1,3.59,3.41,3.41,0,0,1-2.89,1.36,3.17,3.17,0,0,1-1.41-.29,2.89,2.89,0,0,1-1-.86v4.83h-2.71V215.83h2.45l.16,1.19a3.34,3.34,0,0,1,1.07-1,2.91,2.91,0,0,1,1.47-.36,3.37,3.37,0,0,1,2.91,1.46,6.54,6.54,0,0,1,1,3.85Zm-2.72-.21a5,5,0,0,0-.47-2.32,1.55,1.55,0,0,0-1.46-.88,2,2,0,0,0-1,.25,1.84,1.84,0,0,0-.69.72v4.42a1.66,1.66,0,0,0,.69.65,2.25,2.25,0,0,0,1.06.23,1.56,1.56,0,0,0,1.45-.78,4,4,0,0,0,.46-2.1Z" transform="translate(-32.54 -26.58)" fill="#fff"></path> <path d="M116.61,220.77a5.4,5.4,0,0,1,1.26-3.69,4.38,4.38,0,0,1,3.48-1.44,4.45,4.45,0,0,1,3.51,1.44,5.38,5.38,0,0,1,1.26,3.69v.2a5.37,5.37,0,0,1-1.26,3.7,5,5,0,0,1-7,0,5.37,5.37,0,0,1-1.26-3.7Zm2.71.2a4.27,4.27,0,0,0,.49,2.2,1.85,1.85,0,0,0,3.1,0,4.29,4.29,0,0,0,.49-2.2v-.2a4.33,4.33,0,0,0-.49-2.19,1.68,1.68,0,0,0-1.56-.84,1.65,1.65,0,0,0-1.54.85,4.29,4.29,0,0,0-.49,2.18Z" transform="translate(-32.54 -26.58)" fill="#fff"></path> <path d="M137.85,218.17l-1,0a1.77,1.77,0,0,0-1,.25,1.62,1.62,0,0,0-.6.71v6.81h-2.71V215.83h2.53l.12,1.49a3.21,3.21,0,0,1,.91-1.24,2.08,2.08,0,0,1,1.3-.44,2.17,2.17,0,0,1,.38,0l.35.08Z" transform="translate(-32.54 -26.58)" fill="#fff"></path> <path d="M143.69,226.1a4.54,4.54,0,0,1-3.48-1.39,5,5,0,0,1-1.31-3.55v-.38a5.51,5.51,0,0,1,1.24-3.69,4.6,4.6,0,0,1,6.48-.22,4.75,4.75,0,0,1,1.13,3.33v1.48h-6l0,0a2.6,2.6,0,0,0,.67,1.64,2.09,2.09,0,0,0,1.6.64,5.3,5.3,0,0,0,1.5-.18,7.14,7.14,0,0,0,1.31-.58l.73,1.68a4.87,4.87,0,0,1-1.61.84A7,7,0,0,1,143.69,226.1Zm-.24-8.36a1.4,1.4,0,0,0-1.19.58,3,3,0,0,0-.54,1.51l0,0h3.33v-.24a2.21,2.21,0,0,0-.4-1.39A1.48,1.48,0,0,0,143.45,217.74Z" transform="translate(-32.54 -26.58)" fill="#fff"></path> <path d="M154.78,223.13a.94.94,0,0,0-.43-.77,4.45,4.45,0,0,0-1.61-.58,6.57,6.57,0,0,1-2.7-1.07,2.37,2.37,0,0,1-.91-2,2.78,2.78,0,0,1,1.1-2.21,4.43,4.43,0,0,1,2.93-.91,4.83,4.83,0,0,1,3.07.9,2.69,2.69,0,0,1,1.09,2.29l0,0h-2.62a1.3,1.3,0,0,0-.39-1,1.82,1.82,0,0,0-2.17-.06,1,1,0,0,0-.38.8.92.92,0,0,0,.4.77,4.57,4.57,0,0,0,1.61.53,6.39,6.39,0,0,1,2.76,1.09,2.42,2.42,0,0,1,.91,2,2.63,2.63,0,0,1-1.17,2.22,5,5,0,0,1-3.07.86,4.65,4.65,0,0,1-3.18-1,2.87,2.87,0,0,1-1.12-2.32l0-.06h2.49a1.43,1.43,0,0,0,.53,1.18,2.19,2.19,0,0,0,1.31.36,1.86,1.86,0,0,0,1.15-.3A1,1,0,0,0,154.78,223.13Z" transform="translate(-32.54 -26.58)" fill="#fff"></path> <path d="M162.4,213.36v2.47h1.7v1.91h-1.7v5.13a1.2,1.2,0,0,0,.24.84.85.85,0,0,0,.65.25l.37,0a3,3,0,0,0,.36-.08l.23,2a4.12,4.12,0,0,1-.8.21,4.46,4.46,0,0,1-.84.07,2.89,2.89,0,0,1-2.17-.77,3.36,3.36,0,0,1-.76-2.45v-5.14h-1.47v-1.91h1.47v-2.47Z" transform="translate(-32.54 -26.58)" fill="#fff"></path> <path d="M171.75,225.91a5.23,5.23,0,0,1-.26-.73,6.33,6.33,0,0,1-.16-.78,3.58,3.58,0,0,1-1.1,1.22,2.78,2.78,0,0,1-1.63.48,3.41,3.41,0,0,1-2.44-.81,2.89,2.89,0,0,1-.86-2.22,2.66,2.66,0,0,1,1.14-2.3,5.72,5.72,0,0,1,3.33-.81h1.52v-.81a1.57,1.57,0,0,0-.38-1.12,1.48,1.48,0,0,0-1.13-.4,1.45,1.45,0,0,0-1,.32,1.12,1.12,0,0,0-.36.89h-2.63v-.06a2.57,2.57,0,0,1,1.11-2.2,4.84,4.84,0,0,1,3.09-.93,4.51,4.51,0,0,1,2.93.92,3.17,3.17,0,0,1,1.13,2.61v4.17a7.38,7.38,0,0,0,.44,2.57Zm-2.49-1.82a2.35,2.35,0,0,0,1.27-.35,1.84,1.84,0,0,0,.76-.82v-1.43h-1.52a1.79,1.79,0,0,0-1.31.44,1.37,1.37,0,0,0-.45,1,1,1,0,0,0,.33.81A1.3,1.3,0,0,0,169.26,224.09Z" transform="translate(-32.54 -26.58)" fill="#fff"></path> <path d="M178.57,215.83l.12,1.44a3.71,3.71,0,0,1,1.23-1.2,3.23,3.23,0,0,1,1.65-.43,3,3,0,0,1,2.39,1,4.43,4.43,0,0,1,.86,3v6.3h-2.73v-6.3a2.09,2.09,0,0,0-.41-1.45,1.68,1.68,0,0,0-1.24-.42,2,2,0,0,0-1,.22,1.87,1.87,0,0,0-.72.62v7.33H176V215.83Z" transform="translate(-32.54 -26.58)" fill="#fff"></path> <path d="M190.08,213.36v2.47h1.7v1.91h-1.7v5.13a1.2,1.2,0,0,0,.24.84.85.85,0,0,0,.65.25l.37,0,.36-.08.23,2a4.12,4.12,0,0,1-.8.21,4.46,4.46,0,0,1-.84.07,2.89,2.89,0,0,1-2.17-.77,3.36,3.36,0,0,1-.76-2.45v-5.14h-1.47v-1.91h1.47v-2.47Z" transform="translate(-32.54 -26.58)" fill="#fff"></path> <path d="M198,226.1a4.54,4.54,0,0,1-3.48-1.39,5,5,0,0,1-1.31-3.55v-.38a5.45,5.45,0,0,1,1.24-3.69,4.6,4.6,0,0,1,6.48-.22A4.74,4.74,0,0,1,202,220.2v1.48h-6v0a2.64,2.64,0,0,0,.66,1.64,2.12,2.12,0,0,0,1.61.64,5.3,5.3,0,0,0,1.5-.18,6.79,6.79,0,0,0,1.3-.58l.74,1.68a5,5,0,0,1-1.61.84A7.09,7.09,0,0,1,198,226.1Zm-.24-8.36a1.4,1.4,0,0,0-1.19.58,2.84,2.84,0,0,0-.54,1.51l0,0h3.34v-.24a2.21,2.21,0,0,0-.41-1.39A1.45,1.45,0,0,0,197.73,217.74Z" transform="translate(-32.54 -26.58)" fill="#fff"></path> <path d="M206.63,217.75h-2.72v-2.39h2.72Zm0,8.16h-2.72v-2.39h2.72Z" transform="translate(-32.54 -26.58)" fill="#fff"></path> <path d="M222.49,220.64a6.32,6.32,0,0,1-1.14,4.05,4.24,4.24,0,0,1-6.32,0,6.29,6.29,0,0,1-1.15-4v-3a6.34,6.34,0,0,1,1.14-4.05,4.23,4.23,0,0,1,6.32,0,6.28,6.28,0,0,1,1.15,4.05Zm-1.12-3.21a5.36,5.36,0,0,0-.82-3.21,3.07,3.07,0,0,0-4.74,0,5.44,5.44,0,0,0-.81,3.21v3.38a5.39,5.39,0,0,0,.83,3.2,3,3,0,0,0,4.73,0,5.48,5.48,0,0,0,.81-3.21Z" transform="translate(-32.54 -26.58)" fill="#fff"></path> <path d="M230.07,226H229V213.51l-3.45.4v-.78l4.57-.82Z" transform="translate(-32.54 -26.58)" fill="#fff"></path> <path d="M237,217.37h-1.27v-1.52H237Zm0,8.54h-1.27v-1.53H237Z" transform="translate(-32.54 -26.58)" fill="#fff"></path> <path d="M248.06,225.91h-8.42V225l4.45-5a12.87,12.87,0,0,0,1.73-2.32,3.8,3.8,0,0,0,.51-1.8,2.89,2.89,0,0,0-.71-2,2.63,2.63,0,0,0-2-.76,3,3,0,0,0-2.35.86,3.23,3.23,0,0,0-.8,2.29h-1l0-.06a3.81,3.81,0,0,1,1.1-2.87,4.14,4.14,0,0,1,3.1-1.17,3.91,3.91,0,0,1,2.81,1,3.6,3.6,0,0,1,1.05,2.71,4.38,4.38,0,0,1-.7,2.26,18.28,18.28,0,0,1-2,2.57l-3.73,4.22,0,.05h7Z" transform="translate(-32.54 -26.58)" fill="#fff"></path> <path d="M257.05,221.54h2.13v1h-2.13v3.42H256v-3.42h-6.37v-.64l6.25-9.51h1.22Zm-6.14,0h5v-7.73l-.06,0-.47,1Z" transform="translate(-32.54 -26.58)" fill="#fff"></path> <path d="M262.23,217.37H261v-1.52h1.28Zm0,8.54H261v-1.53h1.28Z" transform="translate(-32.54 -26.58)" fill="#fff"></path> <path d="M269.88,226h-1.12V213.51l-3.45.4v-.78l4.57-.82Z" transform="translate(-32.54 -26.58)" fill="#fff"></path> <path d="M283.41,215.84a3,3,0,0,1-.64,1.92,3.63,3.63,0,0,1-1.72,1.2,4.09,4.09,0,0,1,2,1.27,3.13,3.13,0,0,1,.75,2.08,3.37,3.37,0,0,1-1.22,2.81,4.81,4.81,0,0,1-3.14,1,4.87,4.87,0,0,1-3.16-1,3.44,3.44,0,0,1-1.21-2.82,3.18,3.18,0,0,1,.74-2.09,4,4,0,0,1,2-1.27,3.63,3.63,0,0,1-1.7-1.19,3.13,3.13,0,0,1-.62-1.92,3.4,3.4,0,0,1,1.1-2.72,4.17,4.17,0,0,1,2.86-1,4.24,4.24,0,0,1,2.88,1A3.41,3.41,0,0,1,283.41,215.84Zm-.74,6.48a2.62,2.62,0,0,0-.93-2.09,3.76,3.76,0,0,0-4.66,0,2.67,2.67,0,0,0-.91,2.09,2.55,2.55,0,0,0,.91,2.08,4,4,0,0,0,4.68,0A2.56,2.56,0,0,0,282.67,222.32Zm-.38-6.49a2.54,2.54,0,0,0-.82-2,3.16,3.16,0,0,0-4.11,0,2.58,2.58,0,0,0-.81,2,2.44,2.44,0,0,0,.81,1.92,3,3,0,0,0,2.07.72,3,3,0,0,0,2.05-.72A2.44,2.44,0,0,0,282.29,215.83Z" transform="translate(-32.54 -26.58)" fill="#fff"></path> <path d="M287.42,217.37h-1.28v-1.52h1.28Zm0,8.54h-1.28v-1.53h1.28Z" transform="translate(-32.54 -26.58)" fill="#fff"></path> <path d="M298.62,220.64a6.32,6.32,0,0,1-1.14,4.05,4.24,4.24,0,0,1-6.32,0,6.23,6.23,0,0,1-1.15-4v-3a6.4,6.4,0,0,1,1.13-4.05,4.24,4.24,0,0,1,6.33,0,6.34,6.34,0,0,1,1.15,4.05Zm-1.12-3.21a5.43,5.43,0,0,0-.82-3.21,2.76,2.76,0,0,0-2.38-1.12,2.73,2.73,0,0,0-2.36,1.12,5.44,5.44,0,0,0-.81,3.21v3.38A5.39,5.39,0,0,0,292,224a2.75,2.75,0,0,0,2.37,1.14,2.71,2.71,0,0,0,2.36-1.13,5.4,5.4,0,0,0,.82-3.21Z" transform="translate(-32.54 -26.58)" fill="#fff"></path> <path d="M309.74,220.64a6.32,6.32,0,0,1-1.14,4.05,4.24,4.24,0,0,1-6.32,0,6.23,6.23,0,0,1-1.15-4v-3a6.34,6.34,0,0,1,1.14-4.05,4.23,4.23,0,0,1,6.32,0,6.28,6.28,0,0,1,1.15,4.05Zm-1.12-3.21a5.36,5.36,0,0,0-.82-3.21,3.07,3.07,0,0,0-4.74,0,5.44,5.44,0,0,0-.81,3.21v3.38a5.39,5.39,0,0,0,.82,3.2,3,3,0,0,0,4.74,0,5.48,5.48,0,0,0,.81-3.21Z" transform="translate(-32.54 -26.58)" fill="#fff"></path> <path d="M318.51,223.34a1.61,1.61,0,0,0-.59-1.23,4.58,4.58,0,0,0-2.1-.87,7.27,7.27,0,0,1-2.67-1,2.15,2.15,0,0,1-.86-1.82,2.43,2.43,0,0,1,1-1.95,3.93,3.93,0,0,1,2.57-.8,4,4,0,0,1,2.7.84,2.52,2.52,0,0,1,.95,2.11l0,.06h-1a1.85,1.85,0,0,0-.7-1.44,2.79,2.79,0,0,0-1.9-.62,2.76,2.76,0,0,0-1.83.53,1.54,1.54,0,0,0-.61,1.22,1.45,1.45,0,0,0,.53,1.15,5,5,0,0,0,2.1.8,6.8,6.8,0,0,1,2.69,1.1,2.24,2.24,0,0,1,.89,1.89,2.45,2.45,0,0,1-1,2,4.3,4.3,0,0,1-2.69.78,4.39,4.39,0,0,1-2.89-.87,2.5,2.5,0,0,1-1-2.09l0-.06h1a1.83,1.83,0,0,0,.89,1.58,3.66,3.66,0,0,0,1.94.49,3.05,3.05,0,0,0,1.91-.53A1.58,1.58,0,0,0,318.51,223.34Z" transform="translate(-32.54 -26.58)" fill="#fff"></path> <path d="M66.61,192.86v4.92H63.89V184.21h5.4a5.31,5.31,0,0,1,3.68,1.2,4.34,4.34,0,0,1,0,6.27,5.4,5.4,0,0,1-3.68,1.18Zm0-2.1h2.68a2.25,2.25,0,0,0,1.73-.62,2.2,2.2,0,0,0,.58-1.58A2.27,2.27,0,0,0,71,187a2.21,2.21,0,0,0-1.73-.64H66.61Z" transform="translate(-32.54 -26.58)" fill="#fff"></path> <path d="M81.9,197.78a5.23,5.23,0,0,1-.26-.73,4.89,4.89,0,0,1-.15-.78,3.71,3.71,0,0,1-1.11,1.22,2.75,2.75,0,0,1-1.63.48,3.41,3.41,0,0,1-2.44-.81,2.93,2.93,0,0,1-.86-2.22,2.66,2.66,0,0,1,1.14-2.3,5.72,5.72,0,0,1,3.33-.81h1.52V191a1.57,1.57,0,0,0-.38-1.12,1.48,1.48,0,0,0-1.13-.4,1.45,1.45,0,0,0-1,.32,1.12,1.12,0,0,0-.36.89H75.93v-.06a2.53,2.53,0,0,1,1.11-2.2,4.81,4.81,0,0,1,3.08-.93,4.51,4.51,0,0,1,2.93.92A3.15,3.15,0,0,1,84.17,191v4.17a8,8,0,0,0,.11,1.33,6.18,6.18,0,0,0,.34,1.24ZM79.41,196a2.41,2.41,0,0,0,1.28-.35,1.87,1.87,0,0,0,.75-.82v-1.43H79.92a1.82,1.82,0,0,0-1.31.44,1.37,1.37,0,0,0-.45,1,1,1,0,0,0,.34.81A1.27,1.27,0,0,0,79.41,196Z" transform="translate(-32.54 -26.58)" fill="#fff"></path> <path d="M85.81,192.82a6.54,6.54,0,0,1,1-3.85,3.37,3.37,0,0,1,2.91-1.46,2.9,2.9,0,0,1,1.49.38,3.36,3.36,0,0,1,1.1,1.09l.21-1.28h2.35v10a3.73,3.73,0,0,1-1.29,3A5.44,5.44,0,0,1,90,201.85a6.8,6.8,0,0,1-1.62-.21,7.57,7.57,0,0,1-1.58-.57l.5-2a6.88,6.88,0,0,0,1.27.45,6.22,6.22,0,0,0,1.41.15,2.45,2.45,0,0,0,1.65-.46,1.86,1.86,0,0,0,.52-1.46v-.91a3,3,0,0,1-1.05.87,3.23,3.23,0,0,1-1.39.29,3.42,3.42,0,0,1-2.89-1.36,5.8,5.8,0,0,1-1-3.59Zm2.72.2a4.11,4.11,0,0,0,.45,2.09,1.55,1.55,0,0,0,1.45.77,2.27,2.27,0,0,0,1.06-.23,1.71,1.71,0,0,0,.69-.67v-4.41a1.88,1.88,0,0,0-.69-.71,2,2,0,0,0-1-.25,1.53,1.53,0,0,0-1.46.89,5.14,5.14,0,0,0-.46,2.32Z" transform="translate(-32.54 -26.58)" fill="#fff"></path> <path d="M96.58,192.65a5.41,5.41,0,0,1,1.26-3.7,4.38,4.38,0,0,1,3.48-1.44,4.45,4.45,0,0,1,3.51,1.44,5.39,5.39,0,0,1,1.26,3.7v.19a5.37,5.37,0,0,1-1.26,3.7,5,5,0,0,1-7,0,5.37,5.37,0,0,1-1.26-3.7Zm2.71.19a4.33,4.33,0,0,0,.49,2.21,1.67,1.67,0,0,0,1.56.83,1.65,1.65,0,0,0,1.54-.84,4.29,4.29,0,0,0,.49-2.2v-.2a4.33,4.33,0,0,0-.49-2.19,1.68,1.68,0,0,0-1.56-.84,1.65,1.65,0,0,0-1.54.85,4.29,4.29,0,0,0-.49,2.18Z" transform="translate(-32.54 -26.58)" fill="#fff"></path> <path d="M110.79,189.62h-2.72v-2.39h2.72Zm0,8.16h-2.72v-2.39h2.72Z" transform="translate(-32.54 -26.58)" fill="#fff"></path> <path d="M120.54,190.39h1.3a3.12,3.12,0,0,0,2.24-.74,2.54,2.54,0,0,0,.77-1.91A2.56,2.56,0,0,0,122,185a3,3,0,0,0-2.14.77,2.6,2.6,0,0,0-.84,2h-1l0,0a3.28,3.28,0,0,1,1.11-2.64,4.19,4.19,0,0,1,2.93-1,4.1,4.1,0,0,1,2.89,1,3.59,3.59,0,0,1,1.07,2.77,3,3,0,0,1-.59,1.8,3.54,3.54,0,0,1-1.68,1.26,3.2,3.2,0,0,1,2.53,3.26,3.6,3.6,0,0,1-1.17,2.84,4.37,4.37,0,0,1-3,1,4.73,4.73,0,0,1-3.05-1,3.27,3.27,0,0,1-1.23-2.81v-.05h1a2.73,2.73,0,0,0,.9,2.11A3.33,3.33,0,0,0,122,197a3.21,3.21,0,0,0,2.26-.75,2.75,2.75,0,0,0,.81-2.14,2.57,2.57,0,0,0-.85-2.11,3.81,3.81,0,0,0-2.42-.68h-1.3Z" transform="translate(-32.54 -26.58)" fill="#fff"></path> <path d="M130.19,197.78h-1.27v-1.53h1.27Z" transform="translate(-32.54 -26.58)" fill="#fff"></path> <path d="M141.78,192.51a6.38,6.38,0,0,1-1.13,4.05,4.24,4.24,0,0,1-6.32,0,6.23,6.23,0,0,1-1.15-4v-3a6.34,6.34,0,0,1,1.13-4.05,4.24,4.24,0,0,1,6.33,0,6.34,6.34,0,0,1,1.14,4.05Zm-1.11-3.21a5.43,5.43,0,0,0-.82-3.21,2.76,2.76,0,0,0-2.38-1.12,2.73,2.73,0,0,0-2.37,1.12,5.44,5.44,0,0,0-.81,3.21v3.38a5.39,5.39,0,0,0,.83,3.2,2.75,2.75,0,0,0,2.37,1.14,2.71,2.71,0,0,0,2.36-1.13,5.48,5.48,0,0,0,.82-3.21Z" transform="translate(-32.54 -26.58)" fill="#fff"></path> <path d="M152.91,192.51a6.32,6.32,0,0,1-1.14,4.05,4.24,4.24,0,0,1-6.32,0,6.23,6.23,0,0,1-1.15-4v-3a6.34,6.34,0,0,1,1.14-4.05,3.79,3.79,0,0,1,3.15-1.42,3.83,3.83,0,0,1,3.17,1.42,6.34,6.34,0,0,1,1.15,4.05Zm-1.12-3.21a5.36,5.36,0,0,0-.82-3.21,2.76,2.76,0,0,0-2.38-1.12,2.73,2.73,0,0,0-2.36,1.12,5.44,5.44,0,0,0-.81,3.21v3.38a5.39,5.39,0,0,0,.82,3.2,2.75,2.75,0,0,0,2.37,1.14,2.71,2.71,0,0,0,2.36-1.13,5.4,5.4,0,0,0,.82-3.21Z" transform="translate(-32.54 -26.58)" fill="#fff"></path> <path d="M164,192.51a6.32,6.32,0,0,1-1.14,4.05,4.24,4.24,0,0,1-6.32,0,6.29,6.29,0,0,1-1.15-4v-3a6.34,6.34,0,0,1,1.14-4.05,4.24,4.24,0,0,1,6.33,0,6.34,6.34,0,0,1,1.14,4.05Zm-1.12-3.21a5.36,5.36,0,0,0-.82-3.21,3.07,3.07,0,0,0-4.74,0,5.44,5.44,0,0,0-.81,3.21v3.38a5.39,5.39,0,0,0,.83,3.2,3,3,0,0,0,4.73,0,5.48,5.48,0,0,0,.81-3.21Z" transform="translate(-32.54 -26.58)" fill="#fff"></path> <path d="M188.08,192a3.94,3.94,0,0,0-2.28-1.34,3.1,3.1,0,0,0,1.7-3.37,3.36,3.36,0,0,0-.47-1.49,2.94,2.94,0,0,0-1.08-1,6,6,0,0,0-1.47-.59,12.13,12.13,0,0,0-1.83-.29v-3.29h-2v3.2l-1.59,0v-3.22h-2v3.29h-4v2.14h1.45a1,1,0,0,1,1.16.88v3.75h0V196a.7.7,0,0,1-.76.66h-1.45L173,199h4v3.33h2v-3.29h1.59v3.28h2V199a16,16,0,0,0,1.9-.19,8.21,8.21,0,0,0,1.58-.45,4.26,4.26,0,0,0,1.27-.77,3.51,3.51,0,0,0,.84-1.16,5.19,5.19,0,0,0,.43-1.63A3.89,3.89,0,0,0,188.08,192Zm-9-5.82h1.22l.76,0a6.74,6.74,0,0,1,.8.11,4,4,0,0,1,.72.21,1.76,1.76,0,0,1,.62.37,1.74,1.74,0,0,1,.56,1.31,2.09,2.09,0,0,1-.11.67,1.28,1.28,0,0,1-.36.5,3.27,3.27,0,0,1-.48.35,2.18,2.18,0,0,1-.63.24l-.67.14a5.61,5.61,0,0,1-.72.08l-.65,0a6.09,6.09,0,0,1-.61,0h-.45v-4Zm5.49,8.89a2.07,2.07,0,0,1-.32.52,2,2,0,0,1-.52.39,4.67,4.67,0,0,1-.62.27,6.12,6.12,0,0,1-.72.19l-.75.11-.76,0-.69,0h-1.11v-4.41h1.46c.22,0,.52,0,.9,0a5.82,5.82,0,0,1,1,.12,5.88,5.88,0,0,1,.85.24,2.62,2.62,0,0,1,.75.39,2,2,0,0,1,.48.6,1.8,1.8,0,0,1,.2.84A1.85,1.85,0,0,1,184.58,195.11Z" transform="translate(-32.54 -26.58)" fill="#fff"></path> <path d="M401.11,134.87h-4.5V123.74a25.44,25.44,0,0,0-50.87,0v11.13h-4.5a2.63,2.63,0,0,0-2.63,2.63v49.35a2.63,2.63,0,0,0,2.63,2.63h59.87a2.63,2.63,0,0,0,2.64-2.63V137.5A2.64,2.64,0,0,0,401.11,134.87Zm-25.83,30v10.51a1.66,1.66,0,0,1-1.66,1.66h-4.88a1.66,1.66,0,0,1-1.66-1.66V164.9a7.1,7.1,0,1,1,8.2,0Zm9.19-30H357.89V123.74a13.29,13.29,0,0,1,26.58,0Z" transform="translate(-32.54 -26.58)" fill="#fff"></path> </g> </svg> 